<mxfile host="app.diagrams.net" agent="Mozilla/5.0 (Windows NT 10.0; Win64; x64) AppleWebKit/537.36 (KHTML, like Gecko) Chrome/126.0.0.0 Safari/537.36" version="24.7.4">
  <diagram name="Page-1" id="c4acf3e9-155e-7222-9cf6-157b1a14988f">
    <mxGraphModel dx="1434" dy="746" grid="1" gridSize="10" guides="1" tooltips="1" connect="1" arrows="1" fold="1" page="1" pageScale="1" pageWidth="850" pageHeight="1100" background="none" math="0" shadow="0">
      <root>
        <mxCell id="0" />
        <mxCell id="1" parent="0" />
        <mxCell id="PbC5Yc8THwEYSNEz2fW4-10" style="edgeStyle=orthogonalEdgeStyle;rounded=0;orthogonalLoop=1;jettySize=auto;html=1;" edge="1" parent="1" source="PbC5Yc8THwEYSNEz2fW4-4" target="PbC5Yc8THwEYSNEz2fW4-5">
          <mxGeometry relative="1" as="geometry" />
        </mxCell>
        <mxCell id="PbC5Yc8THwEYSNEz2fW4-4" value="Receive From Socket" style="rounded=1;whiteSpace=wrap;html=1;" vertex="1" parent="1">
          <mxGeometry x="340" y="30" width="120" height="60" as="geometry" />
        </mxCell>
        <mxCell id="PbC5Yc8THwEYSNEz2fW4-8" style="edgeStyle=orthogonalEdgeStyle;rounded=0;orthogonalLoop=1;jettySize=auto;html=1;" edge="1" parent="1" source="PbC5Yc8THwEYSNEz2fW4-5" target="PbC5Yc8THwEYSNEz2fW4-6">
          <mxGeometry relative="1" as="geometry" />
        </mxCell>
        <mxCell id="PbC5Yc8THwEYSNEz2fW4-14" style="edgeStyle=orthogonalEdgeStyle;rounded=0;orthogonalLoop=1;jettySize=auto;html=1;" edge="1" parent="1" source="PbC5Yc8THwEYSNEz2fW4-5" target="PbC5Yc8THwEYSNEz2fW4-13">
          <mxGeometry relative="1" as="geometry">
            <Array as="points">
              <mxPoint x="400" y="250" />
              <mxPoint x="140" y="250" />
            </Array>
          </mxGeometry>
        </mxCell>
        <mxCell id="PbC5Yc8THwEYSNEz2fW4-15" style="edgeStyle=orthogonalEdgeStyle;rounded=0;orthogonalLoop=1;jettySize=auto;html=1;entryX=0.5;entryY=0;entryDx=0;entryDy=0;" edge="1" parent="1" source="PbC5Yc8THwEYSNEz2fW4-5" target="PbC5Yc8THwEYSNEz2fW4-7">
          <mxGeometry relative="1" as="geometry">
            <Array as="points">
              <mxPoint x="400" y="250" />
              <mxPoint x="660" y="250" />
            </Array>
          </mxGeometry>
        </mxCell>
        <mxCell id="PbC5Yc8THwEYSNEz2fW4-5" value="RfbDispatcher" style="rounded=1;whiteSpace=wrap;html=1;" vertex="1" parent="1">
          <mxGeometry x="340" y="150" width="120" height="60" as="geometry" />
        </mxCell>
        <mxCell id="PbC5Yc8THwEYSNEz2fW4-6" value="FileTransfer&lt;br&gt;Receive Handler" style="rounded=1;whiteSpace=wrap;html=1;" vertex="1" parent="1">
          <mxGeometry x="340" y="290" width="120" height="60" as="geometry" />
        </mxCell>
        <mxCell id="PbC5Yc8THwEYSNEz2fW4-22" style="edgeStyle=orthogonalEdgeStyle;rounded=0;orthogonalLoop=1;jettySize=auto;html=1;" edge="1" parent="1" source="PbC5Yc8THwEYSNEz2fW4-7" target="PbC5Yc8THwEYSNEz2fW4-21">
          <mxGeometry relative="1" as="geometry" />
        </mxCell>
        <mxCell id="PbC5Yc8THwEYSNEz2fW4-7" value="Mirero Option&lt;br&gt;Receive Handler" style="rounded=1;whiteSpace=wrap;html=1;" vertex="1" parent="1">
          <mxGeometry x="600" y="290" width="120" height="60" as="geometry" />
        </mxCell>
        <mxCell id="PbC5Yc8THwEYSNEz2fW4-13" value="Default Protocol&lt;div&gt;( RFB 3.8 )&lt;/div&gt;" style="rounded=1;whiteSpace=wrap;html=1;" vertex="1" parent="1">
          <mxGeometry x="80" y="290" width="120" height="60" as="geometry" />
        </mxCell>
        <mxCell id="PbC5Yc8THwEYSNEz2fW4-19" value="Callback to Client" style="rounded=1;whiteSpace=wrap;html=1;" vertex="1" parent="1">
          <mxGeometry x="600" y="470" width="120" height="60" as="geometry" />
        </mxCell>
        <mxCell id="PbC5Yc8THwEYSNEz2fW4-23" style="edgeStyle=orthogonalEdgeStyle;rounded=0;orthogonalLoop=1;jettySize=auto;html=1;" edge="1" parent="1" source="PbC5Yc8THwEYSNEz2fW4-21" target="PbC5Yc8THwEYSNEz2fW4-19">
          <mxGeometry relative="1" as="geometry" />
        </mxCell>
        <mxCell id="PbC5Yc8THwEYSNEz2fW4-21" value="Transform to Data" style="rounded=1;whiteSpace=wrap;html=1;" vertex="1" parent="1">
          <mxGeometry x="600" y="380" width="120" height="60" as="geometry" />
        </mxCell>
        <mxCell id="PbC5Yc8THwEYSNEz2fW4-25" value="" style="rounded=0;whiteSpace=wrap;html=1;dashed=1;fillColor=none;" vertex="1" parent="1">
          <mxGeometry x="50" y="240" width="710" height="130" as="geometry" />
        </mxCell>
        <mxCell id="PbC5Yc8THwEYSNEz2fW4-26" value="RfbDispatcher Listener" style="text;html=1;align=center;verticalAlign=middle;whiteSpace=wrap;rounded=0;" vertex="1" parent="1">
          <mxGeometry x="30" y="210" width="130" height="30" as="geometry" />
        </mxCell>
        <mxCell id="PbC5Yc8THwEYSNEz2fW4-27" value="" style="rounded=0;whiteSpace=wrap;html=1;dashed=1;fillColor=none;strokeColor=#FF0F1F;" vertex="1" parent="1">
          <mxGeometry x="540" y="220" width="250" height="360" as="geometry" />
        </mxCell>
        <mxCell id="PbC5Yc8THwEYSNEz2fW4-28" value="Implement" style="text;html=1;align=center;verticalAlign=middle;whiteSpace=wrap;rounded=0;" vertex="1" parent="1">
          <mxGeometry x="710" y="190" width="80" height="30" as="geometry" />
        </mxCell>
      </root>
    </mxGraphModel>
  </diagram>
</mxfile>
